<svg xmlns="http://www.w3.org/2000/svg" viewBox="0 0 512 512">
  <defs>
    <linearGradient id="grad" x1="0%" y1="0%" x2="100%" y2="100%">
      <stop offset="0%" style="stop-color:#3498db;stop-opacity:1" />
      <stop offset="100%" style="stop-color:#2c3e50;stop-opacity:1" />
    </linearGradient>
  </defs>
  <path fill="url(#grad)" d="M466.5 83.7l-192-80a48.15 48.15 0 0 0-36.9 0l-192 80C27.7 91.1 16 108.6 16 128c0 198.5 114.5 335.7 221.5 380.3 11.8 4.9 25.1 4.9 36.9 0C360.1 472.6 496 349.3 496 128c0-19.4-11.7-36.9-29.5-44.3zM256.1 446.3l-.1-381 175.9 73.3c-3.3 151.4-82.1 261.1-175.8 307.7z"/>
  <g transform="translate(180, 180) scale(0.3)">
    <rect x="96" y="80" width="320" height="320" rx="32" ry="32" fill="#e74c3c" stroke="#c0392b" stroke-width="16"/>
    <path fill="#ecf0f1" d="M256,180c-35.3,0-64,28.7-64,64c0,21.5,10.7,40.5,27,52v8c0,20.4,16.6,37,37,37s37-16.6,37-37v-8c16.3-11.5,27-30.5,27-52C320,208.7,291.3,180,256,180z M282,276.5l-6,4.2v23.3c0,11-9,20-20,20s-20-9-20-20v-23.3l-6-4.2c-12.5-8.8-20-22.9-20-38.5c0-26.5,21.5-48,48-48s48,21.5,48,48C306,253.6,298.5,267.8,282,276.5z"/>
  </g>
</svg>
