<svg xmlns="http://www.w3.org/2000/svg" viewBox="0 0 500 400">
  <defs>
    <linearGradient id="grad1" x1="0%" y1="0%" x2="100%" y2="100%">
      <stop offset="0%" style="stop-color:#3498db;stop-opacity:1" />
      <stop offset="100%" style="stop-color:#2c3e50;stop-opacity:1" />
    </linearGradient>
  </defs>
  <rect x="100" y="80" width="300" height="240" rx="20" fill="#ecf0f1" stroke="#bdc3c7" stroke-width="5"/>
  <rect x="120" y="110" width="260" height="40" rx="5" fill="#e6e6e6"/>
  <rect x="120" y="160" width="260" height="40" rx="5" fill="#e6e6e6"/>
  <rect x="120" y="210" width="260" height="40" rx="5" fill="#e6e6e6"/>
  <rect x="120" y="260" width="120" height="40" rx="5" fill="url(#grad1)"/>
  <text x="180" y="285" font-family="Arial" font-size="16" fill="white" text-anchor="middle">Generate</text>
  <circle cx="380" cy="280" r="25" fill="#27ae60"/>
  <text x="380" y="288" font-family="Arial" font-size="30" fill="white" text-anchor="middle">+</text>
  <g transform="translate(350, 130) scale(0.1)">
    <rect x="96" y="80" width="320" height="320" rx="32" ry="32" fill="#e74c3c" stroke="#c0392b" stroke-width="16"/>
    <path fill="#ecf0f1" d="M256,180c-35.3,0-64,28.7-64,64c0,21.5,10.7,40.5,27,52v8c0,20.4,16.6,37,37,37s37-16.6,37-37v-8c16.3-11.5,27-30.5,27-52C320,208.7,291.3,180,256,180z"/>
  </g>
</svg>
